g SM_ItemZone_Circle
v -0.3513898 0.20287502 0.4516899
v -0.20287502 0.3513898 0.4516899
v -0.18573439 0.32170135 0.37338185
v -0.18573439 0.32170135 0.37338185
v -0.32170135 0.18573439 0.37338185
v -0.3513898 0.20287502 0.4516899
v 0.6203025 0 0.38076654
v 0.53719765 0.31015125 0.38076654
v 0.53719765 0.31015125 -0.012471378
v 0.6203025 0 -0.012471378
v 0.5371975 -0.3101516 0.38076654
v 0.5371975 -0.3101516 -0.012471378
v 0.31015098 -0.5371979 0.38076654
v 0.31015092 -0.5371979 -0.012471378
v 0.31015122 0.5371977 -0.012471378
v 0.53719765 0.31015125 -0.012471378
v 0.53719765 0.31015125 0.38076654
v 0.31015122 0.5371977 0.38076654
v -2.711428E-08 0.6203025 -0.012471378
v -2.711428E-08 0.6203025 0.38076654
v -0.31015128 0.53719765 -0.012471378
v -0.31015128 0.53719765 0.38076654
v -0.53719765 0.31015128 -0.012471378
v -0.31015128 0.53719765 -0.012471378
v -0.31015128 0.53719765 0.38076654
v -0.53719765 0.31015128 0.38076654
v -0.6203025 9.366307E-08 -0.012471378
v -0.6203025 9.366307E-08 0.38076654
v -0.53719777 -0.31015113 -0.012471378
v -0.53719777 -0.31015113 0.38076654
v -0.31015143 -0.5371976 -0.012471378
v -0.53719777 -0.31015113 -0.012471378
v -0.53719777 -0.31015113 0.38076654
v -0.31015143 -0.5371976 0.38076654
v -2.8838622E-07 -0.6203025 -0.012471378
v -2.8838622E-07 -0.6203025 0.38076654
v 0.31015092 -0.5371979 -0.012471378
v 0.31015098 -0.5371979 0.38076654
v 0.3513898 0.20287499 0.4516899
v 0.50312364 0.2904786 0.45168987
v 0.5809572 0 0.45168987
v 0.40574998 0 0.4516899
v 0.3513897 -0.20287524 0.4516899
v 0.5809572 0 0.45168987
v 0.50312346 -0.29047894 0.45168987
v 0.20287497 0.35138986 0.4516899
v 0.50312364 0.2904786 0.45168987
v 0.3513898 0.20287499 0.4516899
v 0.29047856 0.5031237 0.45168987
v -2.5394444E-08 0.5809572 0.45168987
v 0.29047856 0.5031237 0.45168987
v 0.20287497 0.35138986 0.4516899
v -1.7735896E-08 0.40574998 0.4516899
v -0.20287502 0.3513898 0.4516899
v -0.29047862 0.50312364 0.45168987
v -2.5394444E-08 0.5809572 0.45168987
v -1.7735896E-08 0.40574998 0.4516899
v -0.29047862 0.50312364 0.45168987
v -0.20287502 0.3513898 0.4516899
v -0.3513898 0.20287502 0.4516899
v -0.50312364 0.29047862 0.45168987
v -0.5809572 8.772209E-08 0.45168987
v -0.50312364 0.29047862 0.45168987
v -0.3513898 0.20287502 0.4516899
v -0.40574998 6.126655E-08 0.4516899
v -0.5809572 8.772209E-08 0.45168987
v -0.35138988 -0.20287493 0.4516899
v -0.50312376 -0.29047847 0.45168987
v -0.29047877 -0.5031236 0.45168987
v -0.50312376 -0.29047847 0.45168987
v -0.35138988 -0.20287493 0.4516899
v -0.20287514 -0.35138974 0.4516899
v -0.20287514 -0.35138974 0.4516899
v -1.8863815E-07 -0.40574998 0.4516899
v -2.7009412E-07 -0.5809572 0.45168987
v -0.29047877 -0.5031236 0.45168987
v 0.20287478 -0.3513899 0.4516899
v -2.7009412E-07 -0.5809572 0.45168987
v -1.8863815E-07 -0.40574998 0.4516899
v 0.29047832 -0.5031238 0.45168987
v 0.29047832 -0.5031238 0.45168987
v 0.3513897 -0.20287524 0.4516899
v 0.50312346 -0.29047894 0.45168987
v 0.20287478 -0.3513899 0.4516899
v 0.40574998 0 0.4516899
v 0.32170135 0.18573438 0.37338185
v 0.3513898 0.20287499 0.4516899
v 0.37146875 0 0.37338185
v 0.20287497 0.35138986 0.4516899
v 0.3513898 0.20287499 0.4516899
v 0.18573436 0.3217015 0.37338185
v 0.32170135 0.18573438 0.37338185
v -1.7735896E-08 0.40574998 0.4516899
v 0.20287497 0.35138986 0.4516899
v 0.18573436 0.3217015 0.37338185
v -1.6237417E-08 0.37146875 0.37338185
v -1.7735896E-08 0.40574998 0.4516899
v -0.18573439 0.32170135 0.37338185
v -0.20287502 0.3513898 0.4516899
v -1.6237417E-08 0.37146875 0.37338185
v -0.40574998 6.126655E-08 0.4516899
v -0.3513898 0.20287502 0.4516899
v -0.32170135 0.18573439 0.37338185
v -0.37146875 5.609023E-08 0.37338185
v -0.40574998 6.126655E-08 0.4516899
v -0.3217015 -0.18573435 0.37338185
v -0.35138988 -0.20287493 0.4516899
v -0.37146875 5.609023E-08 0.37338185
v -0.20287514 -0.35138974 0.4516899
v -0.35138988 -0.20287493 0.4516899
v -0.18573457 -0.32170135 0.37338185
v -0.3217015 -0.18573435 0.37338185
v -1.8863815E-07 -0.40574998 0.4516899
v -0.20287514 -0.35138974 0.4516899
v -0.18573457 -0.32170135 0.37338185
v -1.727004E-07 -0.37146875 0.37338185
v -1.8863815E-07 -0.40574998 0.4516899
v 0.18573417 -0.3217015 0.37338185
v 0.20287478 -0.3513899 0.4516899
v -1.727004E-07 -0.37146875 0.37338185
v 0.3513897 -0.20287524 0.4516899
v 0.20287478 -0.3513899 0.4516899
v 0.3217013 -0.18573461 0.37338185
v 0.18573417 -0.3217015 0.37338185
v 0.40574998 0 0.4516899
v 0.3513897 -0.20287524 0.4516899
v 0.3217013 -0.18573461 0.37338185
v 0.37146875 0 0.37338185
v 0.50312364 0.2904786 0.45168987
v 0.6203025 0 0.38076654
v 0.5809572 0 0.45168987
v 0.53719765 0.31015125 0.38076654
v 0.29047856 0.5031237 0.45168987
v 0.31015122 0.5371977 0.38076654
v -2.711428E-08 0.6203025 0.38076654
v -2.5394444E-08 0.5809572 0.45168987
v -0.29047862 0.50312364 0.45168987
v -0.31015128 0.53719765 0.38076654
v -0.53719765 0.31015128 0.38076654
v -0.31015128 0.53719765 0.38076654
v -0.29047862 0.50312364 0.45168987
v -0.50312364 0.29047862 0.45168987
v -0.6203025 9.366307E-08 0.38076654
v -0.5809572 8.772209E-08 0.45168987
v -0.50312376 -0.29047847 0.45168987
v -0.53719777 -0.31015113 0.38076654
v -0.29047877 -0.5031236 0.45168987
v -0.53719777 -0.31015113 0.38076654
v -0.50312376 -0.29047847 0.45168987
v -0.31015143 -0.5371976 0.38076654
v -2.8838622E-07 -0.6203025 0.38076654
v -2.7009412E-07 -0.5809572 0.45168987
v 0.29047832 -0.5031238 0.45168987
v 0.31015098 -0.5371979 0.38076654
v 0.50312346 -0.29047894 0.45168987
v 0.31015098 -0.5371979 0.38076654
v 0.29047832 -0.5031238 0.45168987
v 0.5371975 -0.3101516 0.38076654
v 0.6203025 0 0.38076654
v 0.5809572 0 0.45168987
v 0.18573417 -0.3217015 0.37338185
v -4.1599076E-08 -2.483527E-09 0.3733818
v 0.3217013 -0.18573461 0.37338185
v -1.727004E-07 -0.37146875 0.37338185
v 0.37146875 0 0.37338185
v -0.18573457 -0.32170135 0.37338185
v 0.32170135 0.18573438 0.37338185
v -0.3217015 -0.18573435 0.37338185
v 0.18573436 0.3217015 0.37338185
v -0.37146875 5.609023E-08 0.37338185
v -1.6237417E-08 0.37146875 0.37338185
v -0.32170135 0.18573439 0.37338185
v -0.18573439 0.32170135 0.37338185
vt 0.24645996 0.6972656
vt 0.31201172 0.7397461
vt 0.3227539 0.7211914
vt 0.3227539 0.7211914
vt 0.26489258 0.68652344
vt 0.24645996 0.6972656
vt 0.9189453 0.5004883
vt 0.9355469 0.83154297
vt 0.9897461 0.8984375
vt 0.98339844 0.47998047
vt 0.9272461 0.16796875
vt 0.9916992 0.14758301
vt 0.86572266 0.06536865
vt 0.8886719 0.013748169
vt 0.89746094 0.99560547
vt 0.9897461 0.8984375
vt 0.9355469 0.83154297
vt 0.85498047 0.91748047
vt 0.49609375 0.98339844
vt 0.4963379 0.92285156
vt 0.07543945 0.9838867
vt 0.15307617 0.9213867
vt 0.013412476 0.921875
vt 0.07543945 0.9838867
vt 0.15307617 0.9213867
vt 0.08050537 0.84277344
vt 0.0107803345 0.49804688
vt 0.073913574 0.5004883
vt 0.0045166016 0.1003418
vt 0.08148193 0.15197754
vt 0.103271484 0.010307312
vt 0.0045166016 0.1003418
vt 0.08148193 0.15197754
vt 0.15405273 0.06933594
vt 0.49731445 0.0016841888
vt 0.49438477 0.058776855
vt 0.8886719 0.013748169
vt 0.86572266 0.06536865
vt 0.7817383 0.74658203
vt 0.8911133 0.8071289
vt 0.88427734 0.49926758
vt 0.78515625 0.5024414
vt 0.7763672 0.23510742
vt 0.88427734 0.49926758
vt 0.8901367 0.18164062
vt 0.7470703 0.77685547
vt 0.8911133 0.8071289
vt 0.7817383 0.74658203
vt 0.81640625 0.87939453
vt 0.49682617 0.88134766
vt 0.81640625 0.87939453
vt 0.7470703 0.77685547
vt 0.49780273 0.7783203
vt 0.24768066 0.77978516
vt 0.18115234 0.8754883
vt 0.49682617 0.88134766
vt 0.49780273 0.7783203
vt 0.18115234 0.8754883
vt 0.24768066 0.77978516
vt 0.21020508 0.7397461
vt 0.10870361 0.80810547
vt 0.109680176 0.5004883
vt 0.10870361 0.80810547
vt 0.21020508 0.7397461
vt 0.22058105 0.49829102
vt 0.109680176 0.5004883
vt 0.2163086 0.24206543
vt 0.11071777 0.17456055
vt 0.17712402 0.1071167
vt 0.11071777 0.17456055
vt 0.2163086 0.24206543
vt 0.24267578 0.20874023
vt 0.24267578 0.20874023
vt 0.49780273 0.20703125
vt 0.49682617 0.111083984
vt 0.17712402 0.1071167
vt 0.74902344 0.20874023
vt 0.49682617 0.111083984
vt 0.49780273 0.20703125
vt 0.81347656 0.1071167
vt 0.81347656 0.1071167
vt 0.7763672 0.23510742
vt 0.8901367 0.18164062
vt 0.74902344 0.20874023
vt 0.7504883 0.5004883
vt 0.72998047 0.6723633
vt 0.74853516 0.68310547
vt 0.7290039 0.5004883
vt 0.7167969 0.75097656
vt 0.74853516 0.68310547
vt 0.7060547 0.7324219
vt 0.72998047 0.6723633
vt 0.49682617 0.75390625
vt 0.7167969 0.75097656
vt 0.7060547 0.7324219
vt 0.49682617 0.7324219
vt 0.49682617 0.75390625
vt 0.3227539 0.7211914
vt 0.31201172 0.7397461
vt 0.49682617 0.7324219
vt 0.24353027 0.5004883
vt 0.24645996 0.6972656
vt 0.26489258 0.68652344
vt 0.26489258 0.5004883
vt 0.24353027 0.5004883
vt 0.2668457 0.33129883
vt 0.24841309 0.32055664
vt 0.26489258 0.5004883
vt 0.30810547 0.24682617
vt 0.24841309 0.32055664
vt 0.31884766 0.26538086
vt 0.2668457 0.33129883
vt 0.49682617 0.24694824
vt 0.30810547 0.24682617
vt 0.31884766 0.26538086
vt 0.49682617 0.26831055
vt 0.49682617 0.24694824
vt 0.6821289 0.25830078
vt 0.6928711 0.23986816
vt 0.49682617 0.26831055
vt 0.7504883 0.2944336
vt 0.6928711 0.23986816
vt 0.7319336 0.30517578
vt 0.6821289 0.25830078
vt 0.7504883 0.5004883
vt 0.7504883 0.2944336
vt 0.7319336 0.30517578
vt 0.7290039 0.5004883
vt 0.8911133 0.8071289
vt 0.9091797 0.49926758
vt 0.88427734 0.49926758
vt 0.9082031 0.81689453
vt 0.81640625 0.87939453
vt 0.82958984 0.90185547
vt 0.49682617 0.90722656
vt 0.49682617 0.88134766
vt 0.18115234 0.8754883
vt 0.16821289 0.8979492
vt 0.08630371 0.8208008
vt 0.16821289 0.8979492
vt 0.18115234 0.8754883
vt 0.10870361 0.80810547
vt 0.083862305 0.5004883
vt 0.109680176 0.5004883
vt 0.11071777 0.17456055
vt 0.08831787 0.1616211
vt 0.17712402 0.1071167
vt 0.08831787 0.1616211
vt 0.11071777 0.17456055
vt 0.16418457 0.08477783
vt 0.49682617 0.08526611
vt 0.49682617 0.111083984
vt 0.81347656 0.1071167
vt 0.82666016 0.08477783
vt 0.8901367 0.18164062
vt 0.82666016 0.08477783
vt 0.81347656 0.1071167
vt 0.9033203 0.17114258
vt 0.9091797 0.49926758
vt 0.88427734 0.49926758
vt 0.57910156 0.35717773
vt 0.4963379 0.5004883
vt 0.63964844 0.4177246
vt 0.4963379 0.33496094
vt 0.6616211 0.5004883
vt 0.41381836 0.35717773
vt 0.63964844 0.5830078
vt 0.35327148 0.4177246
vt 0.57910156 0.6435547
vt 0.3310547 0.5004883
vt 0.4963379 0.66552734
vt 0.35327148 0.5830078
vt 0.41381836 0.6435547
vn 0.6513672 -0.6513672 0.3894043
vn 0.6513672 -0.6513672 0.3894043
vn 0.6513672 -0.6513672 0.3894043
vn 0.6513672 -0.6513672 0.3894043
vn 0.6513672 -0.6513672 0.3894043
vn 0.6513672 -0.6513672 0.3894043
vn 0.9707031 0 0.24108887
vn 0.84033203 0.48535156 0.24108887
vn 0.86621094 0.5 0
vn 1 0 0
vn 0.84033203 -0.48535156 0.24108887
vn 0.86621094 -0.5 0
vn 0.48535156 -0.84033203 0.24108887
vn 0.5 -0.86621094 0
vn 0.5 0.86621094 0
vn 0.86621094 0.5 0
vn 0.84033203 0.48535156 0.24108887
vn 0.48535156 0.84033203 0.24108887
vn -0 1 0
vn -0 0.9707031 0.24108887
vn -0.5 0.86621094 0
vn -0.48535156 0.84033203 0.24108887
vn -0.86621094 0.5 0
vn -0.5 0.86621094 0
vn -0.48535156 0.84033203 0.24108887
vn -0.84033203 0.48535156 0.24108887
vn -1 0 0
vn -0.9707031 0 0.24108887
vn -0.86621094 -0.5 0
vn -0.84033203 -0.48535156 0.24108887
vn -0.5 -0.86621094 0
vn -0.86621094 -0.5 0
vn -0.84033203 -0.48535156 0.24108887
vn -0.48535156 -0.84033203 0.24108887
vn -0 -1 0
vn -0 -0.9707031 0.24108887
vn 0.5 -0.86621094 0
vn 0.48535156 -0.84033203 0.24108887
vn -0 0 1
vn -0 0 1
vn -0 0 1
vn -0 0 1
vn -0 0 1
vn -0 0 1
vn -0 0 1
vn -0 0 1
vn -0 0 1
vn -0 0 1
vn -0 0 1
vn -0 0 1
vn -0 0 1
vn -0 0 1
vn -0 0 1
vn -0 0 1
vn -0 0 1
vn -0 0 1
vn -0 0 1
vn -0 0 1
vn -0 0 1
vn -0 0 1
vn -0 0 1
vn -0 0 1
vn -0 0 1
vn -0 0 1
vn -0 0 1
vn -0 0 1
vn -0 0 1
vn -0 0 1
vn -0 0 1
vn -0 0 1
vn -0 0 1
vn -0 0 1
vn -0 0 1
vn -0 0 1
vn -0 0 1
vn -0 0 1
vn -0 0 1
vn -0 0 1
vn -0 0 1
vn -0 0 1
vn -0 0 1
vn -0 0 1
vn -0 0 1
vn -0 0 1
vn -0.88964844 -0.23840332 0.3894043
vn -0.88964844 -0.23840332 0.3894043
vn -0.88964844 -0.23840332 0.3894043
vn -0.88964844 -0.23840332 0.3894043
vn -0.6513672 -0.6513672 0.3894043
vn -0.6513672 -0.6513672 0.3894043
vn -0.6513672 -0.6513672 0.3894043
vn -0.6513672 -0.6513672 0.3894043
vn -0.23840332 -0.88964844 0.3894043
vn -0.23840332 -0.88964844 0.3894043
vn -0.23840332 -0.88964844 0.3894043
vn -0.23840332 -0.88964844 0.3894043
vn 0.23840332 -0.88964844 0.3894043
vn 0.23840332 -0.88964844 0.3894043
vn 0.23840332 -0.88964844 0.3894043
vn 0.23840332 -0.88964844 0.3894043
vn 0.88964844 -0.23840332 0.3894043
vn 0.88964844 -0.23840332 0.3894043
vn 0.88964844 -0.23840332 0.3894043
vn 0.88964844 -0.23840332 0.3894043
vn 0.88964844 0.23840332 0.3894043
vn 0.88964844 0.23840332 0.3894043
vn 0.88964844 0.23840332 0.3894043
vn 0.88964844 0.23840332 0.3894043
vn 0.6513672 0.6513672 0.3894043
vn 0.6513672 0.6513672 0.3894043
vn 0.6513672 0.6513672 0.3894043
vn 0.6513672 0.6513672 0.3894043
vn 0.23840332 0.88964844 0.3894043
vn 0.23840332 0.88964844 0.3894043
vn 0.23840332 0.88964844 0.3894043
vn 0.23840332 0.88964844 0.3894043
vn -0.23840332 0.88964844 0.3894043
vn -0.23840332 0.88964844 0.3894043
vn -0.23840332 0.88964844 0.3894043
vn -0.23840332 0.88964844 0.3894043
vn -0.6513672 0.6513672 0.3894043
vn -0.6513672 0.6513672 0.3894043
vn -0.6513672 0.6513672 0.3894043
vn -0.6513672 0.6513672 0.3894043
vn -0.88964844 0.23840332 0.3894043
vn -0.88964844 0.23840332 0.3894043
vn -0.88964844 0.23840332 0.3894043
vn -0.88964844 0.23840332 0.3894043
vn 0.7573242 0.43725586 0.48510742
vn 0.9707031 0 0.24108887
vn 0.8745117 0 0.48510742
vn 0.84033203 0.48535156 0.24108887
vn 0.43725586 0.7573242 0.48510742
vn 0.48535156 0.84033203 0.24108887
vn -0 0.9707031 0.24108887
vn -0 0.8745117 0.48510742
vn -0.43725586 0.7573242 0.48510742
vn -0.48535156 0.84033203 0.24108887
vn -0.84033203 0.48535156 0.24108887
vn -0.48535156 0.84033203 0.24108887
vn -0.43725586 0.7573242 0.48510742
vn -0.7573242 0.43725586 0.48510742
vn -0.9707031 0 0.24108887
vn -0.8745117 0 0.48510742
vn -0.7573242 -0.43725586 0.48510742
vn -0.84033203 -0.48535156 0.24108887
vn -0.43725586 -0.7573242 0.48510742
vn -0.84033203 -0.48535156 0.24108887
vn -0.7573242 -0.43725586 0.48510742
vn -0.48535156 -0.84033203 0.24108887
vn -0 -0.9707031 0.24108887
vn -0 -0.8745117 0.48510742
vn 0.43725586 -0.7573242 0.48510742
vn 0.48535156 -0.84033203 0.24108887
vn 0.7573242 -0.43725586 0.48510742
vn 0.48535156 -0.84033203 0.24108887
vn 0.43725586 -0.7573242 0.48510742
vn 0.84033203 -0.48535156 0.24108887
vn 0.9707031 0 0.24108887
vn 0.8745117 0 0.48510742
vn -0 0 1
vn -0 0 1
vn -0 0 1
vn -0 0 1
vn -0 0 1
vn -0 0 1
vn -0 0 1
vn -0 0 1
vn -0 0 1
vn -0 0 1
vn -0 0 1
vn -0 0 1
vn -0 0 1
g SM_ItemZone_Circle_0
f 3/3/3 2/2/2 1/1/1
f 6/6/6 5/5/5 4/4/4
f 9/9/9 8/8/8 7/7/7
f 7/7/7 10/10/10 9/9/9
f 10/10/10 7/7/7 11/11/11
f 11/11/11 12/12/12 10/10/10
f 12/12/12 11/11/11 13/13/13
f 13/13/13 14/14/14 12/12/12
f 17/17/17 16/16/16 15/15/15
f 15/15/15 18/18/18 17/17/17
f 18/18/18 15/15/15 19/19/19
f 19/19/19 20/20/20 18/18/18
f 20/20/20 19/19/19 21/21/21
f 21/21/21 22/22/22 20/20/20
f 25/25/25 24/24/24 23/23/23
f 23/23/23 26/26/26 25/25/25
f 26/26/26 23/23/23 27/27/27
f 27/27/27 28/28/28 26/26/26
f 28/28/28 27/27/27 29/29/29
f 29/29/29 30/30/30 28/28/28
f 33/33/33 32/32/32 31/31/31
f 31/31/31 34/34/34 33/33/33
f 34/34/34 31/31/31 35/35/35
f 35/35/35 36/36/36 34/34/34
f 36/36/36 35/35/35 37/37/37
f 37/37/37 38/38/38 36/36/36
f 41/41/41 40/40/40 39/39/39
f 39/39/39 42/42/42 41/41/41
f 44/44/44 42/42/42 43/43/43
f 43/43/43 45/45/45 44/44/44
f 48/48/48 47/47/47 46/46/46
f 49/49/49 46/46/46 47/47/47
f 52/52/52 51/51/51 50/50/50
f 50/50/50 53/53/53 52/52/52
f 56/56/56 55/55/55 54/54/54
f 54/54/54 57/57/57 56/56/56
f 60/60/60 59/59/59 58/58/58
f 58/58/58 61/61/61 60/60/60
f 64/64/64 63/63/63 62/62/62
f 62/62/62 65/65/65 64/64/64
f 67/67/67 65/65/65 66/66/66
f 68/68/68 67/67/67 66/66/66
f 71/71/71 70/70/70 69/69/69
f 69/69/69 72/72/72 71/71/71
f 75/75/75 74/74/74 73/73/73
f 73/73/73 76/76/76 75/75/75
f 79/79/79 78/78/78 77/77/77
f 80/80/80 77/77/77 78/78/78
f 83/83/83 82/82/82 81/81/81
f 82/82/82 84/84/84 81/81/81
f 87/87/87 86/86/86 85/85/85
f 86/86/86 88/88/88 85/85/85
f 91/91/91 90/90/90 89/89/89
f 91/91/91 92/92/92 90/90/90
f 95/95/95 94/94/94 93/93/93
f 93/93/93 96/96/96 95/95/95
f 99/99/99 98/98/98 97/97/97
f 98/98/98 100/100/100 97/97/97
f 103/103/103 102/102/102 101/101/101
f 101/101/101 104/104/104 103/103/103
f 107/107/107 106/106/106 105/105/105
f 106/106/106 108/108/108 105/105/105
f 111/111/111 110/110/110 109/109/109
f 111/111/111 112/112/112 110/110/110
f 115/115/115 114/114/114 113/113/113
f 113/113/113 116/116/116 115/115/115
f 119/119/119 118/118/118 117/117/117
f 118/118/118 120/120/120 117/117/117
f 123/123/123 122/122/122 121/121/121
f 123/123/123 124/124/124 122/122/122
f 127/127/127 126/126/126 125/125/125
f 125/125/125 128/128/128 127/127/127
f 131/131/131 130/130/130 129/129/129
f 130/130/130 132/132/132 129/129/129
f 129/129/129 132/132/132 133/133/133
f 132/132/132 134/134/134 133/133/133
f 133/133/133 134/134/134 135/135/135
f 135/135/135 136/136/136 133/133/133
f 136/136/136 135/135/135 137/137/137
f 135/135/135 138/138/138 137/137/137
f 141/141/141 140/140/140 139/139/139
f 139/139/139 142/142/142 141/141/141
f 142/142/142 139/139/139 143/143/143
f 143/143/143 144/144/144 142/142/142
f 144/144/144 143/143/143 145/145/145
f 143/143/143 146/146/146 145/145/145
f 149/149/149 148/148/148 147/147/147
f 148/148/148 150/150/150 147/147/147
f 147/147/147 150/150/150 151/151/151
f 151/151/151 152/152/152 147/147/147
f 152/152/152 151/151/151 153/153/153
f 151/151/151 154/154/154 153/153/153
f 157/157/157 156/156/156 155/155/155
f 156/156/156 158/158/158 155/155/155
f 155/155/155 158/158/158 159/159/159
f 159/159/159 160/160/160 155/155/155
f 163/163/163 162/162/162 161/161/161
f 161/161/161 162/162/162 164/164/164
f 165/165/165 162/162/162 163/163/163
f 164/164/164 162/162/162 166/166/166
f 167/167/167 162/162/162 165/165/165
f 166/166/166 162/162/162 168/168/168
f 169/169/169 162/162/162 167/167/167
f 168/168/168 162/162/162 170/170/170
f 171/171/171 162/162/162 169/169/169
f 170/170/170 162/162/162 172/172/172
f 173/173/173 162/162/162 171/171/171
f 172/172/172 162/162/162 173/173/173
